<svg xmlns="http://www.w3.org/2000/svg" width="24.6" height="14.7" viewBox="0 -801 1360.8 812" xmlns:xlink="http://www.w3.org/1999/xlink">
    <defs>
        <path id="a" d="M51 0q-5 4-5 7l169 350q169 348 173 352 3 7 28 7 23 0 28-7l172-352L786 7q0-3-5-7H51zm456 344L384 596 137 92l246-1h247L507 344z"/>
        <path id="b" d="M173 380q0 25-19 25-24 0-50-29t-43-89l-2-3-1-3-2-2-3-1H27q-6 6-6 9 0 7 8 29t24 52 44 51 63 22q42 0 65-24t24-56q0-17-3-26 0-6-15-44t-31-89-18-89q0-27 5-44 13-43 63-43 37 0 69 34t50 79 29 83 11 55q0 23-8 40t-18 26-18 18-8 22q0 22 19 41t41 19q19 0 34-18t16-58q0-27-12-83t-37-125-71-119-106-51q-64 0-102 33-37 32-37 95 0 31 8 64t41 117q22 64 22 82z"/>
        <path id="c" d="M377 694q0 8 5 14t15 6q7 0 12-5 5-4 10-19 10-37 41-57 11-7 11-18 0-9-3-12t-14-9q-43-22-75-63l-5-6-5-6q-2-2-5-2t-7-1q-7 0-13 5t-7 15q0 19 47 59H213l-171 1q-13 9-13 19 0 7 13 20h359q-24 38-24 59z"/>
    </defs>
    <g data-mml-node="math" stroke="currentColor" fill="currentColor" stroke-width="0">
        <use xlink:href="#a" data-mml-node="mi" transform="scale(1 -1)"/>
        <g data-mml-node="TeXAtom">
            <g data-mml-node="mover">
                <use xlink:href="#b" data-mml-node="mi" transform="matrix(1 0 0 -1 841 0)"/>
                <use xlink:href="#c" data-mml-node="mo" transform="matrix(1 0 0 -1 861 13)"/>
            </g>
        </g>
    </g>
</svg>
